<svg width="1200" height="180" viewBox="0 0 1200 180" fill="none" xmlns="http://www.w3.org/2000/svg">
  <defs>
    <linearGradient id="bar" x1="0" y1="0" x2="1200" y2="180" gradientUnits="userSpaceOnUse">
      <stop stop-color="#181818"/>
      <stop offset="1" stop-color="#111111"/>
    </linearGradient>
    <filter id="shadow" x="-30" y="-30" width="360" height="130" color-interpolation-filters="sRGB">
      <feDropShadow dx="0" dy="14" stdDeviation="16" flood-color="#000000" flood-opacity="0.35"/>
    </filter>
  </defs>

  <rect width="1200" height="180" fill="#0F0F0F"/>
  <rect width="1200" height="92" fill="url(#bar)"/>
  <rect y="91" width="1200" height="1" fill="#3A3A3A"/>
  <rect y="92" width="1200" height="88" fill="#111111"/>

  <g opacity="0.48" fill="#F5F5F5" font-family="-apple-system, BlinkMacSystemFont, 'SF Pro Display', Arial, sans-serif" font-size="25" font-weight="700">
    <text x="92" y="58">CPU</text>
    <text x="154" y="58">28%</text>
    <text x="268" y="58">GPU</text>
    <text x="334" y="58">41%</text>
    <text x="815" y="58">RAM</text>
    <text x="884" y="58">69%</text>
    <text x="1015" y="58">26 C</text>
  </g>

  <g>
    <rect x="443" y="18" width="314" height="58" rx="29" fill="#3A3A3A" opacity="0.001" filter="url(#shadow)"/>
    <rect x="443" y="18" width="314" height="58" rx="29" fill="#3A3A3A" stroke="#505050"/>
    <g transform="translate(473 31)" stroke="#FFF36A" stroke-width="4" stroke-linecap="round">
      <circle cx="16" cy="16" r="8" fill="#FFF36A" stroke="none"/>
      <path d="M16 1V6"/>
      <path d="M16 26V31"/>
      <path d="M1 16H6"/>
      <path d="M26 16H31"/>
      <path d="M5.4 5.4L9 9"/>
      <path d="M23 23L26.6 26.6"/>
      <path d="M26.6 5.4L23 9"/>
      <path d="M9 23L5.4 26.6"/>
    </g>
    <text x="519" y="56" fill="#FFFFFF" font-family="-apple-system, BlinkMacSystemFont, 'SF Pro Display', Arial, sans-serif" font-size="28" font-weight="700" letter-spacing="0">AC 1.55 kW</text>
  </g>

  <g opacity="0.7" stroke="#F5F5F5" stroke-width="4" stroke-linecap="round" stroke-linejoin="round">
    <path d="M60 32H38C31.4 32 26 37.4 26 44V56C26 62.6 31.4 68 38 68H60C66.6 68 72 62.6 72 56V44C72 37.4 66.6 32 60 32Z"/>
    <path d="M43 49H55"/>
    <path d="M1120 36H1165"/>
    <path d="M1120 56H1165"/>
  </g>

  <text x="600" y="137" text-anchor="middle" fill="#909090" font-family="-apple-system, BlinkMacSystemFont, 'SF Pro Text', Arial, sans-serif" font-size="18">
    Sample menu bar state
  </text>
</svg>
