<svg width="760" height="1080" viewBox="0 0 760 1080" fill="none" xmlns="http://www.w3.org/2000/svg">
  <defs>
    <linearGradient id="panel" x1="96" y1="48" x2="664" y2="1008" gradientUnits="userSpaceOnUse">
      <stop stop-color="#252525"/>
      <stop offset="1" stop-color="#191919"/>
    </linearGradient>
    <linearGradient id="history" x1="0" y1="544" x2="0" y2="708" gradientUnits="userSpaceOnUse">
      <stop stop-color="#279CFF" stop-opacity="0.84"/>
      <stop offset="1" stop-color="#22D3EE" stop-opacity="0.18"/>
    </linearGradient>
    <filter id="popoverShadow" x="40" y="0" width="680" height="1080" color-interpolation-filters="sRGB">
      <feDropShadow dx="0" dy="24" stdDeviation="24" flood-color="#000000" flood-opacity="0.45"/>
    </filter>
    <style>
      .font { font-family: -apple-system, BlinkMacSystemFont, "SF Pro Display", Arial, sans-serif; }
      .text { fill: #F7F7F7; }
      .muted { fill: #A7A7A7; }
      .small { font-size: 18px; font-weight: 600; }
      .label { font-size: 19px; font-weight: 650; }
      .detail { font-size: 17px; font-weight: 600; }
    </style>
  </defs>

  <rect width="760" height="1080" fill="#101010"/>

  <g filter="url(#popoverShadow)">
    <path d="M380 42L407 70H353L380 42Z" fill="#252525" stroke="#4F4F4F"/>
    <rect x="84" y="70" width="592" height="960" rx="34" fill="url(#panel)" stroke="#565656" stroke-width="2"/>
  </g>

  <g class="font">
    <text x="128" y="138" class="text" font-size="44" font-weight="760">Growatt</text>
    <text x="128" y="176" fill="#24E878" font-size="25" font-weight="760">Normal - 14:05:18</text>
    <text x="632" y="128" text-anchor="end" class="text" font-size="39" font-weight="800">1.55 kW</text>
    <text x="632" y="160" text-anchor="end" class="muted" font-size="17" font-weight="650">1,550 W - AC output</text>

    <g transform="translate(118 216)">
      <path d="M33 104A74 74 0 1 1 155 104" stroke="#545454" stroke-width="16" stroke-linecap="round"/>
      <path d="M33 104A74 74 0 0 1 99 31" stroke="#208BFF" stroke-width="16" stroke-linecap="round"/>
      <text x="94" y="87" text-anchor="middle" class="text" font-size="32" font-weight="800">1.55</text>
      <text x="94" y="114" text-anchor="middle" class="muted" font-size="19" font-weight="700">kW</text>
      <text x="94" y="171" text-anchor="middle" class="muted label">AC</text>
      <text x="94" y="202" text-anchor="middle" class="muted detail">1,550 W</text>
    </g>

    <g transform="translate(286 216)">
      <path d="M33 104A74 74 0 1 1 155 104" stroke="#545454" stroke-width="16" stroke-linecap="round"/>
      <path d="M33 104A74 74 0 0 1 120 35" stroke="#FFF000" stroke-width="16" stroke-linecap="round"/>
      <text x="94" y="87" text-anchor="middle" class="text" font-size="32" font-weight="800">1.61</text>
      <text x="94" y="114" text-anchor="middle" class="muted" font-size="19" font-weight="700">kW</text>
      <text x="94" y="171" text-anchor="middle" class="muted label">PV</text>
      <text x="94" y="202" text-anchor="middle" class="muted detail">1,610 W</text>
    </g>

    <g transform="translate(454 216)">
      <path d="M33 104A74 74 0 1 1 155 104" stroke="#545454" stroke-width="16" stroke-linecap="round"/>
      <path d="M33 104A74 74 0 0 1 76 43" stroke="#FF9E2C" stroke-width="16" stroke-linecap="round"/>
      <text x="66" y="87" class="text" font-size="30" font-weight="800">47</text>
      <text x="104" y="87" class="text" font-size="30" font-weight="800">.</text>
      <text x="116" y="87" class="text" font-size="30" font-weight="800">1</text>
      <text x="94" y="114" text-anchor="middle" class="muted" font-size="19" font-weight="700">C</text>
      <text x="94" y="171" text-anchor="middle" class="muted label">Temp</text>
      <text x="94" y="202" text-anchor="middle" class="muted detail">Inverter</text>
    </g>

    <rect x="116" y="478" width="528" height="174" rx="12" fill="#323232" opacity="0.84"/>
    <text x="140" y="516" class="text small">AC Power History</text>
    <text x="620" y="516" text-anchor="end" class="muted" font-size="16" font-weight="650">34 samples</text>
    <path d="M140 618L140 585L158 598L176 570L194 610L212 548L230 575L248 540L266 596L284 565L302 584L320 612L338 590L356 601L374 565L392 615L410 592L428 603L446 566L464 610L482 595L500 584L518 604L536 570L554 599L572 587L590 612L620 594L620 628L140 628Z" fill="url(#history)"/>
    <path d="M140 585L158 598L176 570L194 610L212 548L230 575L248 540L266 596L284 565L302 584L320 612L338 590L356 601L374 565L392 615L410 592L428 603L446 566L464 610L482 595L500 584L518 604L536 570L554 599L572 587L590 612L620 594" stroke="#279CFF" stroke-width="3" stroke-linecap="round" stroke-linejoin="round"/>

    <g>
      <rect x="116" y="674" width="254" height="88" rx="12" fill="#303030"/>
      <rect x="134" y="696" width="5" height="44" rx="2.5" fill="#FFF000"/>
      <text x="154" y="706" class="muted label">PV1</text>
      <text x="154" y="735" class="text" font-size="25" font-weight="760">0.82 kW</text>
      <text x="154" y="755" class="muted" font-size="15" font-weight="620">820 W - 188.1 V - 4.4 A</text>

      <rect x="390" y="674" width="254" height="88" rx="12" fill="#303030"/>
      <rect x="408" y="696" width="5" height="44" rx="2.5" fill="#FF9E2C"/>
      <text x="428" y="706" class="muted label">PV2</text>
      <text x="428" y="735" class="text" font-size="25" font-weight="760">0.79 kW</text>
      <text x="428" y="755" class="muted" font-size="15" font-weight="620">790 W - 185.5 V - 4.3 A</text>

      <rect x="116" y="782" width="254" height="88" rx="12" fill="#303030"/>
      <rect x="134" y="804" width="5" height="44" rx="2.5" fill="#28E37B"/>
      <text x="154" y="814" class="muted label">Today</text>
      <text x="154" y="843" class="text" font-size="25" font-weight="760">16.0 kWh</text>
      <text x="154" y="863" class="muted" font-size="15" font-weight="620">Generated</text>

      <rect x="390" y="782" width="254" height="88" rx="12" fill="#303030"/>
      <rect x="408" y="804" width="5" height="44" rx="2.5" fill="#22D3EE"/>
      <text x="428" y="814" class="muted label">Total</text>
      <text x="428" y="843" class="text" font-size="25" font-weight="760">128.6 kWh</text>
      <text x="428" y="863" class="muted" font-size="15" font-weight="620">Lifetime</text>
    </g>

    <rect x="116" y="902" width="528" height="1" fill="#3E3E3E"/>
    <text x="144" y="940" class="text" font-size="20" font-weight="700">Connection</text>
    <text x="144" y="970" class="muted" font-size="16" font-weight="620">192.168.31.5:502 - unit 1 - 10s poll</text>

    <rect x="116" y="992" width="138" height="42" rx="12" fill="#383838"/>
    <text x="185" y="1019" text-anchor="middle" class="text" font-size="17" font-weight="720">Refresh</text>
    <rect x="274" y="992" width="126" height="42" rx="12" fill="#383838"/>
    <text x="337" y="1019" text-anchor="middle" class="text" font-size="17" font-weight="720">Restart</text>
    <rect x="536" y="992" width="108" height="42" rx="12" fill="#383838"/>
    <text x="590" y="1019" text-anchor="middle" class="text" font-size="17" font-weight="720">Quit</text>

    <text x="380" y="1056" text-anchor="middle" class="muted" font-size="15" font-weight="600">Sample data</text>
  </g>
</svg>
